{"accessors":[{"bufferView":2,"componentType":5126,"count":2433,"max":[0.8495179414749146,2.21819806098938,0.8383798599243164],"min":[-1.8195842504501343,-0.4702434539794922,-0.8390891551971436],"type":"VEC3"},{"bufferView":2,"byteOffset":29196,"componentType":5126,"count":2433,"max":[0.9865606427192688,1,1],"min":[-0.9992618560791016,-0.9966928362846375,-1],"type":"VEC3"},{"bufferView":1,"componentType":5126,"count":2433,"max":[0.3791147470474243,0.999938428401947],"min":[0.00006156350718811154,0.00006156350718811154],"type":"VEC2"},{"bufferView":0,"componentType":5125,"count":12480,"type":"SCALAR"},{"bufferView":2,"byteOffset":58392,"componentType":5126,"count":64,"max":[-1.6107268333435059,0.872904360294342,0.3524812161922455],"min":[-1.6736398935317993,0.7499617338180542,-0.3470684885978699],"type":"VEC3"},{"bufferView":2,"byteOffset":59160,"componentType":5126,"count":64,"max":[-0.8902194499969482,-0.4555320739746094,0],"min":[-0.8902194499969482,-0.4555320739746094,0],"type":"VEC3"},{"bufferView":1,"byteOffset":19464,"componentType":5126,"count":64,"max":[0.2774619162082672,0.4994344115257263],"min":[0.27627918124198914,0.4832873046398163],"type":"VEC2"},{"bufferView":0,"byteOffset":49920,"componentType":5125,"count":180,"type":"SCALAR"},{"bufferView":2,"byteOffset":59928,"componentType":5126,"count":1198,"max":[-0.9858412742614746,1.800118088722229,0.40160366892814636],"min":[-1.3439552783966064,0.48563235998153687,-0.45937860012054443],"type":"VEC3"},{"bufferView":2,"byteOffset":74304,"componentType":5126,"count":1198,"max":[0.9996631145477295,0.9977858066558838,1],"min":[-0.9933975338935852,-0.997787594795227,-1],"type":"VEC3"},{"bufferView":1,"byteOffset":19976,"componentType":5126,"count":1198,"max":[1.000000238418579,1],"min":[0,0],"type":"VEC2"},{"bufferView":0,"byteOffset":50640,"componentType":5125,"count":5784,"type":"SCALAR"},{"bufferView":2,"byteOffset":88680,"componentType":5126,"count":196,"max":[-1.313570499420166,1.6964919567108154,0.23163935542106628],"min":[-1.345888376235962,1.528476595878601,-0.16777528822422028],"type":"VEC3"},{"bufferView":2,"byteOffset":91032,"componentType":5126,"count":196,"max":[-0.8892755508422852,0.40019580721855164,0.4183240830898285],"min":[-0.9996631145477295,-0.4168354272842407,-0.20615756511688232],"type":"VEC3"},{"bufferView":1,"byteOffset":29560,"componentType":5126,"count":196,"max":[1.000000238418579,1],"min":[1.6391277313232422e-7,0.9062497615814209],"type":"VEC2"},{"bufferView":0,"byteOffset":73776,"componentType":5125,"count":576,"type":"SCALAR"},{"bufferView":2,"byteOffset":93384,"componentType":5126,"count":13318,"max":[-0.6954200267791748,2.3931078910827637,0.699739396572113],"min":[-0.9974672198295593,1.89722740650177,-0.6982451677322388],"type":"VEC3"},{"bufferView":2,"byteOffset":253200,"componentType":5126,"count":13318,"max":[0.9995017051696777,0.9998506307601929,1],"min":[-0.9998066425323486,-0.9994219541549683,-1],"type":"VEC3"},{"bufferView":1,"byteOffset":31128,"componentType":5126,"count":13318,"max":[1.0000001192092896,1.0000001192092896],"min":[0,0],"type":"VEC2"},{"bufferView":0,"byteOffset":76080,"componentType":5125,"count":70656,"type":"SCALAR"},{"bufferView":2,"byteOffset":413016,"componentType":5126,"count":1747,"max":[-0.7324206233024597,2.3230879306793213,0.19226206839084625],"min":[-0.9610152244567871,2.0519919395446777,-0.25523561239242554],"type":"VEC3"},{"bufferView":2,"byteOffset":433980,"componentType":5126,"count":1747,"max":[0.9901185035705566,0.9998172521591187,0.9962345957756042],"min":[-0.9999943971633911,-0.9848446249961853,-0.9964171051979065],"type":"VEC3"},{"bufferView":1,"byteOffset":137672,"componentType":5126,"count":1747,"max":[1.0000001192092896,1.0000001192092896],"min":[0,0],"type":"VEC2"},{"bufferView":0,"byteOffset":358704,"componentType":5125,"count":8640,"type":"SCALAR"},{"bufferView":2,"byteOffset":454944,"componentType":5126,"count":6576,"max":[-0.999579906463623,0.9903728365898132,0.5378875136375427],"min":[-1.2302358150482178,0.415947288274765,-0.5344041585922241],"type":"VEC3"},{"bufferView":2,"byteOffset":533856,"componentType":5126,"count":6576,"max":[0.9998974800109863,0.999990701675415,0.9999183416366577],"min":[-0.9999252557754517,-0.9999988079071045,-0.9998977184295654],"type":"VEC3"},{"bufferView":1,"byteOffset":151648,"componentType":5126,"count":6576,"max":[1.0000001192092896,1.0000001192092896],"min":[0,0],"type":"VEC2"},{"bufferView":0,"byteOffset":393264,"componentType":5125,"count":35328,"type":"SCALAR"},{"bufferView":2,"byteOffset":612768,"componentType":5126,"count":12904,"max":[0.5283572673797607,1.8141518831253052,0.7367493510246277],"min":[-1.8162921667099,-0.04407336190342903,-0.06424284726381302],"type":"VEC3"},{"bufferView":2,"byteOffset":767616,"componentType":5126,"count":12904,"max":[0.9993032217025757,0.9999338388442993,0.9999992847442627],"min":[-0.9998496770858765,-0.9998811483383179,-0.9999992847442627],"type":"VEC3"},{"bufferView":1,"byteOffset":204256,"componentType":5126,"count":12904,"max":[0.6250001192092896,1.0000001192092896],"min":[0.375,0],"type":"VEC2"},{"bufferView":0,"byteOffset":534576,"componentType":5125,"count":58752,"type":"SCALAR"},{"bufferView":2,"byteOffset":922464,"componentType":5126,"count":16,"max":[-1.0378648042678833,0.76749587059021,0.463184118270874],"min":[-1.1824702024459839,0.48491203784942627,-0.46318408846855164],"type":"VEC3"},{"bufferView":2,"byteOffset":922656,"componentType":5126,"count":16,"max":[0.890212893486023,0.45554494857788086,3.24707741583552e-7],"min":[0.8902127742767334,0.4555448889732361,-4.1431152908444346e-7],"type":"VEC3"},{"bufferView":1,"byteOffset":307488,"componentType":5126,"count":16,"max":[1,1],"min":[0,0],"type":"VEC2"},{"bufferView":0,"byteOffset":769584,"componentType":5125,"count":24,"type":"SCALAR"},{"bufferView":2,"byteOffset":922848,"componentType":5126,"count":762,"max":[-0.2953704595565796,0.4347115457057953,0.7469870448112488],"min":[-0.8351846933364868,-0.12223145365715027,0.4705142676830292],"type":"VEC3"},{"bufferView":2,"byteOffset":931992,"componentType":5126,"count":762,"max":[0.9214582443237305,0.9748669266700745,0.9723384976387024],"min":[-0.9605088829994202,-0.9713748097419739,-0.9724234342575073],"type":"VEC3"},{"bufferView":1,"byteOffset":307616,"componentType":5126,"count":762,"max":[1.0000001192092896,1.0000001192092896],"min":[0,0],"type":"VEC2"},{"bufferView":0,"byteOffset":769680,"componentType":5125,"count":3456,"type":"SCALAR"}],"asset":{"extras":{"author":"amieschairez (https://sketchfab.com/amieschairez)","license":"CC-BY-4.0 (http://creativecommons.org/licenses/by/4.0/)","source":"https://sketchfab.com/3d-models/scene-gltf-cow-head-6baf3fa1245e4039baca7109bf602dba","title":"Scene Gltf Cow Head"},"generator":"Sketchfab-13.66.0","version":"2.0"},"bufferViews":[{"buffer":0,"byteLength":783504,"name":"floatBufferViews","target":34963},{"buffer":0,"byteLength":313712,"byteOffset":783504,"byteStride":8,"name":"floatBufferViews","target":34962},{"buffer":0,"byteLength":941136,"byteOffset":1097216,"byteStride":12,"name":"floatBufferViews","target":34962}],"buffers":[{"byteLength":2038352,"uri":"data:application/octet-stream;base64,"}],"images":[{"uri":"data:application/octet-stream;base64,"},{"uri":"data:application/octet-stream;base64,"}],"materials":[{"doubleSided":true,"name":"material_0","pbrMetallicRoughness":{"baseColorTexture":{"index":0},"metallicFactor":0.3276200460801404}},{"doubleSided":true,"name":"material_1","pbrMetallicRoughness":{"baseColorFactor":[0.047058799999999984,0.03921570000000002,0.023529400000000002,1],"metallicFactor":0}},{"doubleSided":true,"name":"material_2","pbrMetallicRoughness":{"metallicFactor":0,"roughnessFactor":0.7394277773037023}},{"doubleSided":true,"name":"material_3","pbrMetallicRoughness":{"baseColorFactor":[0,0,0,1],"metallicFactor":0,"roughnessFactor":0.501961}},{"doubleSided":true,"name":"material_4","pbrMetallicRoughness":{"baseColorFactor":[0.745098,0.454902,0.309804,1],"roughnessFactor":0.501961}},{"doubleSided":true,"name":"material_5","pbrMetallicRoughness":{"baseColorFactor":[0.678431,0.509804,0.407843,1],"metallicFactor":0.501961}},{"doubleSided":true,"name":"material_6","pbrMetallicRoughness":{"baseColorFactor":[0.752941,0.54902,0.305882,1],"metallicFactor":0,"roughnessFactor":0.501961}},{"doubleSided":true,"name":"material_7","pbrMetallicRoughness":{"baseColorFactor":[0.113725,0.0901961,0.0666667,1],"metallicFactor":0,"roughnessFactor":0.501961}},{"doubleSided":true,"name":"material_8","pbrMetallicRoughness":{"baseColorFactor":[0,0,0,1]}},{"doubleSided":true,"name":"material_9","pbrMetallicRoughness":{"baseColorTexture":{"index":1}}}],"meshes":[{"name":"Object_0","primitives":[{"attributes":{"NORMAL":1,"POSITION":0,"TEXCOORD_0":2},"indices":3,"material":0,"mode":4}]},{"name":"Object_1","primitives":[{"attributes":{"NORMAL":5,"POSITION":4,"TEXCOORD_0":6},"indices":7,"material":1,"mode":4}]},{"name":"Object_2","primitives":[{"attributes":{"NORMAL":9,"POSITION":8,"TEXCOORD_0":10},"indices":11,"material":2,"mode":4}]},{"name":"Object_3","primitives":[{"attributes":{"NORMAL":13,"POSITION":12,"TEXCOORD_0":14},"indices":15,"material":3,"mode":4}]},{"name":"Object_4","primitives":[{"attributes":{"NORMAL":17,"POSITION":16,"TEXCOORD_0":18},"indices":19,"material":4,"mode":4}]},{"name":"Object_5","primitives":[{"attributes":{"NORMAL":21,"POSITION":20,"TEXCOORD_0":22},"indices":23,"material":5,"mode":4}]},{"name":"Object_6","primitives":[{"attributes":{"NORMAL":25,"POSITION":24,"TEXCOORD_0":26},"indices":27,"material":6,"mode":4}]},{"name":"Object_7","primitives":[{"attributes":{"NORMAL":29,"POSITION":28,"TEXCOORD_0":30},"indices":31,"material":7,"mode":4}]},{"name":"Object_8","primitives":[{"attributes":{"NORMAL":33,"POSITION":32,"TEXCOORD_0":34},"indices":35,"material":8,"mode":4}]},{"name":"Object_9","primitives":[{"attributes":{"NORMAL":37,"POSITION":36,"TEXCOORD_0":38},"indices":39,"material":9,"mode":4}]}],"nodes":[{"children":[1],"matrix":[1,0,0,0,0,2.220446049250313e-16,-1,0,0,1,2.220446049250313e-16,0,0,0,0,1],"name":"Sketchfab_model"},{"children":[2],"name":"root"},{"children":[3],"matrix":[1,0,0,0,0,2.220446049250313e-16,1,0,0,-1,2.220446049250313e-16,0,0,0,0,1],"name":"GLTF_SceneRootNode"},{"children":[4],"matrix":[1,0,0,0,0,0,-1,0,0,1,0,0,-0.287931889295578,-0.023815443739295006,0.06354205310344696,1],"name":"Sketchfab_model_0"},{"children":[5],"name":"root_1"},{"children":[6],"matrix":[1,0,0,0,0,0,1,0,0,-1,0,0,0,0,0,1],"name":"GLTF_SceneRootNode_2"},{"children":[7],"matrix":[1.2490739215753994,0,-0.19783389452113848,0,0,1.2646437883377075,0,0,0.19783389452113848,0,1.2490739215753994,0,-0.1917654573917389,5.470871925354004,-0.14382405579090118,1],"name":"Cow_Rig_14_3"},{"children":[8],"name":"Navigator_13_4"},{"children":[9],"matrix":[3.601649045944214,0,0,0,0,6.176136016845703,0,0,0,0,3.601649045944214,0,0,3.0884549617767334,-1.4901161193847656e-8,1],"name":"Lattice.002_12_5"},{"children":[10,12,14,16,18,20,22,24,26,28],"matrix":[0.40072014892666497,-0.21845089195203776,0,0,0.1624066692913186,0.2979142091092466,0,0,0,0,0.49127396941185,0,0.11491547524929047,-0.2629728317260742,0.016354087740182877,1],"name":"Plane.001_11_6"},{"children":[11],"name":"Object_7_7"},{"mesh":0,"name":"Object_11"},{"children":[13],"name":"Object_8_8"},{"mesh":1,"name":"Object_13"},{"children":[15],"name":"Object_9_9"},{"mesh":2,"name":"Object_15"},{"children":[17],"name":"Object_10_10"},{"mesh":3,"name":"Object_17"},{"children":[19],"name":"Object_11_11"},{"mesh":4,"name":"Object_19"},{"children":[21],"name":"Object_12_12"},{"mesh":5,"name":"Object_21"},{"children":[23],"name":"Object_13_13"},{"mesh":6,"name":"Object_23"},{"children":[25],"name":"Object_14_14"},{"mesh":7,"name":"Object_25"},{"children":[27],"name":"Object_15_15"},{"mesh":8,"name":"Object_27"},{"children":[29],"name":"Object_16_16"},{"mesh":9,"name":"Object_29"}],"samplers":[{"magFilter":9729,"minFilter":9987,"wrapS":10497,"wrapT":10497}],"scene":0,"scenes":[{"name":"Sketchfab_Scene","nodes":[0]}],"textures":[{"sampler":0,"source":0},{"sampler":0,"source":1}]}